<mxfile host="app.diagrams.net" agent="Mozilla/5.0 (Windows NT 10.0; Win64; x64) AppleWebKit/537.36 (KHTML, like Gecko) Chrome/138.0.0.0 Safari/537.36" version="28.0.7">
  <diagram name="Page-1" id="ihDqNx4dFxFqhMxTKEfC">
    <mxGraphModel dx="2377" dy="1295" grid="1" gridSize="10" guides="1" tooltips="1" connect="1" arrows="1" fold="1" page="1" pageScale="1" pageWidth="850" pageHeight="1100" math="0" shadow="0">
      <root>
        <mxCell id="0" />
        <mxCell id="1" parent="0" />
        <mxCell id="mvFiP8LNWScJndMCZnU6-3" value="CSV Files" style="rounded=0;whiteSpace=wrap;html=1;" vertex="1" parent="1">
          <mxGeometry x="50" y="180" width="200" height="120" as="geometry" />
        </mxCell>
        <mxCell id="mvFiP8LNWScJndMCZnU6-5" value="" style="endArrow=classic;html=1;rounded=0;" edge="1" parent="1">
          <mxGeometry width="50" height="50" relative="1" as="geometry">
            <mxPoint x="250" y="239.5" as="sourcePoint" />
            <mxPoint x="400" y="239.5" as="targetPoint" />
          </mxGeometry>
        </mxCell>
        <mxCell id="mvFiP8LNWScJndMCZnU6-7" value="Remove Duplicates" style="shape=cylinder3;whiteSpace=wrap;html=1;boundedLbl=1;backgroundOutline=1;size=15;" vertex="1" parent="1">
          <mxGeometry x="400" y="170" width="100" height="140" as="geometry" />
        </mxCell>
        <mxCell id="mvFiP8LNWScJndMCZnU6-8" value="Python" style="text;html=1;align=center;verticalAlign=middle;resizable=0;points=[];autosize=1;strokeColor=none;fillColor=none;" vertex="1" parent="1">
          <mxGeometry x="300" y="178" width="60" height="30" as="geometry" />
        </mxCell>
        <mxCell id="mvFiP8LNWScJndMCZnU6-9" value="CSV Files" style="rounded=0;whiteSpace=wrap;html=1;" vertex="1" parent="1">
          <mxGeometry x="60" y="470" width="200" height="120" as="geometry" />
        </mxCell>
        <mxCell id="mvFiP8LNWScJndMCZnU6-10" value="" style="endArrow=classic;html=1;rounded=0;" edge="1" parent="1">
          <mxGeometry width="50" height="50" relative="1" as="geometry">
            <mxPoint x="260" y="529.5" as="sourcePoint" />
            <mxPoint x="410" y="529.5" as="targetPoint" />
          </mxGeometry>
        </mxCell>
        <mxCell id="mvFiP8LNWScJndMCZnU6-11" value="Remove Duplicates" style="shape=cylinder3;whiteSpace=wrap;html=1;boundedLbl=1;backgroundOutline=1;size=15;" vertex="1" parent="1">
          <mxGeometry x="410" y="460" width="100" height="140" as="geometry" />
        </mxCell>
        <mxCell id="mvFiP8LNWScJndMCZnU6-12" value="Python" style="text;html=1;align=center;verticalAlign=middle;resizable=0;points=[];autosize=1;strokeColor=none;fillColor=none;" vertex="1" parent="1">
          <mxGeometry x="310" y="468" width="60" height="30" as="geometry" />
        </mxCell>
        <mxCell id="mvFiP8LNWScJndMCZnU6-13" value="Scheduled Ingestion" style="whiteSpace=wrap;html=1;" vertex="1" parent="1">
          <mxGeometry x="90" y="360" width="120" height="60" as="geometry" />
        </mxCell>
        <mxCell id="mvFiP8LNWScJndMCZnU6-14" value="" style="endArrow=classic;html=1;rounded=0;exitX=0.617;exitY=1.017;exitDx=0;exitDy=0;exitPerimeter=0;" edge="1" parent="1" source="mvFiP8LNWScJndMCZnU6-13" target="mvFiP8LNWScJndMCZnU6-9">
          <mxGeometry width="50" height="50" relative="1" as="geometry">
            <mxPoint x="160" y="440" as="sourcePoint" />
            <mxPoint x="290" y="390" as="targetPoint" />
          </mxGeometry>
        </mxCell>
        <mxCell id="mvFiP8LNWScJndMCZnU6-17" value="" style="endArrow=classic;html=1;rounded=0;" edge="1" parent="1">
          <mxGeometry width="50" height="50" relative="1" as="geometry">
            <mxPoint x="510" y="529.5" as="sourcePoint" />
            <mxPoint x="660" y="529.5" as="targetPoint" />
          </mxGeometry>
        </mxCell>
        <mxCell id="mvFiP8LNWScJndMCZnU6-20" value="Function/Libarary to compare against a national libarary authority of book to ensure book name correct" style="shape=cylinder3;whiteSpace=wrap;html=1;boundedLbl=1;backgroundOutline=1;size=15;" vertex="1" parent="1">
          <mxGeometry x="660" y="450" width="100" height="140" as="geometry" />
        </mxCell>
        <mxCell id="mvFiP8LNWScJndMCZnU6-21" value="" style="endArrow=classic;html=1;rounded=0;" edge="1" parent="1">
          <mxGeometry width="50" height="50" relative="1" as="geometry">
            <mxPoint x="760" y="529.5" as="sourcePoint" />
            <mxPoint x="910" y="529.5" as="targetPoint" />
            <Array as="points">
              <mxPoint x="790" y="529.5" />
            </Array>
          </mxGeometry>
        </mxCell>
        <mxCell id="mvFiP8LNWScJndMCZnU6-23" value="" style="endArrow=classic;html=1;rounded=0;" edge="1" parent="1">
          <mxGeometry width="50" height="50" relative="1" as="geometry">
            <mxPoint x="500" y="239.5" as="sourcePoint" />
            <mxPoint x="650" y="239.5" as="targetPoint" />
          </mxGeometry>
        </mxCell>
        <mxCell id="mvFiP8LNWScJndMCZnU6-24" value="Check Dates are &#39;real&#39;/match library borrowing rules." style="shape=cylinder3;whiteSpace=wrap;html=1;boundedLbl=1;backgroundOutline=1;size=15;" vertex="1" parent="1">
          <mxGeometry x="650" y="170" width="100" height="140" as="geometry" />
        </mxCell>
        <mxCell id="mvFiP8LNWScJndMCZnU6-25" value="Join Tables" style="shape=cylinder3;whiteSpace=wrap;html=1;boundedLbl=1;backgroundOutline=1;size=15;" vertex="1" parent="1">
          <mxGeometry x="900" y="170" width="100" height="140" as="geometry" />
        </mxCell>
        <mxCell id="mvFiP8LNWScJndMCZnU6-26" value="" style="endArrow=classic;html=1;rounded=0;" edge="1" parent="1">
          <mxGeometry width="50" height="50" relative="1" as="geometry">
            <mxPoint x="750" y="239.5" as="sourcePoint" />
            <mxPoint x="900" y="239.5" as="targetPoint" />
          </mxGeometry>
        </mxCell>
        <mxCell id="mvFiP8LNWScJndMCZnU6-27" value="Compare customer data against electoral roll/credit reference agencies" style="shape=cylinder3;whiteSpace=wrap;html=1;boundedLbl=1;backgroundOutline=1;size=15;" vertex="1" parent="1">
          <mxGeometry x="910" y="450" width="100" height="140" as="geometry" />
        </mxCell>
        <mxCell id="mvFiP8LNWScJndMCZnU6-28" value="" style="endArrow=classic;html=1;rounded=0;" edge="1" parent="1">
          <mxGeometry width="50" height="50" relative="1" as="geometry">
            <mxPoint x="1000" y="239.5" as="sourcePoint" />
            <mxPoint x="1150" y="239.5" as="targetPoint" />
          </mxGeometry>
        </mxCell>
        <mxCell id="mvFiP8LNWScJndMCZnU6-29" value="Output to PowerBI" style="ellipse;whiteSpace=wrap;html=1;aspect=fixed;" vertex="1" parent="1">
          <mxGeometry x="1140" y="155" width="170" height="170" as="geometry" />
        </mxCell>
        <mxCell id="mvFiP8LNWScJndMCZnU6-30" value="Join Tables" style="shape=cylinder3;whiteSpace=wrap;html=1;boundedLbl=1;backgroundOutline=1;size=15;" vertex="1" parent="1">
          <mxGeometry x="1160" y="450" width="100" height="140" as="geometry" />
        </mxCell>
        <mxCell id="mvFiP8LNWScJndMCZnU6-31" value="" style="endArrow=classic;html=1;rounded=0;" edge="1" parent="1">
          <mxGeometry width="50" height="50" relative="1" as="geometry">
            <mxPoint x="1010" y="529.5" as="sourcePoint" />
            <mxPoint x="1160" y="529.5" as="targetPoint" />
            <Array as="points">
              <mxPoint x="1040" y="529.5" />
            </Array>
          </mxGeometry>
        </mxCell>
        <mxCell id="mvFiP8LNWScJndMCZnU6-33" value="Serve to customer facing API" style="ellipse;whiteSpace=wrap;html=1;aspect=fixed;" vertex="1" parent="1">
          <mxGeometry x="530" y="660" width="170" height="170" as="geometry" />
        </mxCell>
        <mxCell id="mvFiP8LNWScJndMCZnU6-37" value="Create Multiple internal/external views" style="shape=cylinder3;whiteSpace=wrap;html=1;boundedLbl=1;backgroundOutline=1;size=15;" vertex="1" parent="1">
          <mxGeometry x="240" y="810" width="100" height="140" as="geometry" />
        </mxCell>
        <mxCell id="mvFiP8LNWScJndMCZnU6-39" value="" style="endArrow=classic;html=1;rounded=0;entryX=0.14;entryY=0.186;entryDx=0;entryDy=0;entryPerimeter=0;exitX=0.5;exitY=1;exitDx=0;exitDy=0;exitPerimeter=0;" edge="1" parent="1">
          <mxGeometry width="50" height="50" relative="1" as="geometry">
            <mxPoint x="1209.9999999999995" y="589" as="sourcePoint" />
            <mxPoint x="254" y="835.0400000000002" as="targetPoint" />
            <Array as="points">
              <mxPoint x="1210" y="620" />
              <mxPoint x="250" y="629" />
            </Array>
          </mxGeometry>
        </mxCell>
        <mxCell id="mvFiP8LNWScJndMCZnU6-40" value="" style="endArrow=classic;html=1;rounded=0;" edge="1" parent="1" target="mvFiP8LNWScJndMCZnU6-33">
          <mxGeometry width="50" height="50" relative="1" as="geometry">
            <mxPoint x="340" y="879.5" as="sourcePoint" />
            <mxPoint x="490" y="879.5" as="targetPoint" />
            <Array as="points">
              <mxPoint x="370" y="879.5" />
            </Array>
          </mxGeometry>
        </mxCell>
        <mxCell id="mvFiP8LNWScJndMCZnU6-42" value="Staff Facing API" style="ellipse;whiteSpace=wrap;html=1;aspect=fixed;" vertex="1" parent="1">
          <mxGeometry x="550" y="880" width="170" height="170" as="geometry" />
        </mxCell>
        <mxCell id="mvFiP8LNWScJndMCZnU6-45" style="edgeStyle=orthogonalEdgeStyle;rounded=0;orthogonalLoop=1;jettySize=auto;html=1;exitX=1;exitY=0;exitDx=0;exitDy=97.5;exitPerimeter=0;entryX=0;entryY=0.447;entryDx=0;entryDy=0;entryPerimeter=0;" edge="1" parent="1" source="mvFiP8LNWScJndMCZnU6-37" target="mvFiP8LNWScJndMCZnU6-42">
          <mxGeometry relative="1" as="geometry" />
        </mxCell>
      </root>
    </mxGraphModel>
  </diagram>
</mxfile>
